<?xml version="1.0" encoding="UTF-8" standalone="no"?>
<!-- Created with Inkscape (http://www.inkscape.org/) -->

<svg
   xmlns:dc="http://purl.org/dc/elements/1.1/"
   xmlns:cc="http://creativecommons.org/ns#"
   xmlns:rdf="http://www.w3.org/1999/02/22-rdf-syntax-ns#"
   xmlns:svg="http://www.w3.org/2000/svg"
   xmlns="http://www.w3.org/2000/svg"
   xmlns:sodipodi="http://sodipodi.sourceforge.net/DTD/sodipodi-0.dtd"
   xmlns:inkscape="http://www.inkscape.org/namespaces/inkscape"
   width="400"
   height="150"
   viewBox="0 0 105.83333 39.687501"
   version="1.1"
   id="svg8"
   inkscape:version="0.92.4 (5da689c313, 2019-01-14)"
   sodipodi:docname="masseria.svg">
  <defs
     id="defs2" />
  <sodipodi:namedview
     id="base"
     pagecolor="#ffffff"
     bordercolor="#666666"
     borderopacity="1.0"
     inkscape:pageopacity="0.0"
     inkscape:pageshadow="2"
     inkscape:zoom="0.49497475"
     inkscape:cx="380.65251"
     inkscape:cy="562.05279"
     inkscape:document-units="mm"
     inkscape:current-layer="layer1"
     showgrid="false"
     units="px"
     inkscape:window-width="1920"
     inkscape:window-height="1001"
     inkscape:window-x="-9"
     inkscape:window-y="-9"
     inkscape:window-maximized="1" />
  <metadata
     id="metadata5">
    <rdf:RDF>
      <cc:Work
         rdf:about="">
        <dc:format>image/svg+xml</dc:format>
        <dc:type
           rdf:resource="http://purl.org/dc/dcmitype/StillImage" />
        <dc:title></dc:title>
      </cc:Work>
    </rdf:RDF>
  </metadata>
  <g
     inkscape:label="Livello 1"
     inkscape:groupmode="layer"
     id="layer1"
     transform="translate(0,-257.31249)">
    <path
       style="fill:#000000;stroke-width:0.35277775"
       d="m 9.3628908,284.43442 c 0.03524,-0.83101 1.0290912,-1.51727 1.8859112,-1.30222 1.908947,0.47911 5.839493,-2.82776 7.658996,-6.44373 0.963289,-1.91437 1.703037,-2.92558 2.140216,-2.92558 0.517252,0 0.329783,0.93112 -0.754296,3.74643 -0.578819,1.50317 -0.998925,2.78651 -0.933569,2.85187 0.06535,0.0654 0.514925,-0.47972 0.999044,-1.21127 1.306379,-1.97408 3.505813,-4.32869 4.043404,-4.32869 0.642242,0 0.596603,0.30775 -0.28851,1.9455 -0.417893,0.77324 -1.107962,2.67589 -1.533486,4.22811 -0.63622,2.3208 -0.908631,2.84225 -1.533249,2.93495 -0.838516,0.12445 -0.986456,-0.2739 -0.341318,-0.91904 0.384985,-0.38498 1.681232,-4.06496 1.693219,-4.80696 0.0029,-0.17689 -1.042333,1.1328 -2.322646,2.91041 -1.280313,1.77762 -2.470938,3.23203 -2.645833,3.23203 -0.429465,0 -0.400449,-0.8027 0.0725,-2.00551 1.192437,-3.03264 1.122519,-3.1321 -0.874279,-1.24361 -2.055102,1.94363 -4.994049,3.6019 -6.383648,3.6019 -0.4915202,0 -0.8886232,-0.11907 -0.8824532,-0.26459 z M 23.28213,283.281 c -0.41897,-0.67791 0.590597,-2.82303 1.7419,-3.70117 1.903027,-1.45151 2.356325,-1.12416 1.546089,1.11651 -0.439998,1.21679 -0.128639,2.0664 0.428857,1.17023 0.271924,-0.43712 0.441209,-0.44556 1.073505,-0.0535 0.950581,0.58936 1.211133,0.32051 1.211133,-1.24969 0,-1.46224 1.011038,-2.42034 1.592141,-1.50878 0.479663,0.75244 0.427338,1.05833 -0.18103,1.05833 -0.346371,0 -0.529166,0.34671 -0.529166,1.00366 0,1.37137 -1.092706,2.29816 -2.471061,2.09586 -0.59828,-0.0878 -1.169536,-0.0274 -1.269458,0.1343 -0.259222,0.41943 -2.876901,0.3647 -3.14291,-0.0657 z m 1.933321,-2.06477 c -0.0094,-0.48236 -0.09404,-0.46468 -0.529167,0.11062 -0.674151,0.89131 -0.667013,1.46559 0.01122,0.90271 0.291041,-0.24154 0.524117,-0.69754 0.517947,-1.01333 z m 20.656015,2.08347 c -0.42901,-0.69415 0.56498,-2.831 1.73034,-3.71987 1.5471,-1.18003 2.12031,-1.1506 1.79418,0.0921 -0.14003,0.53358 -0.2776,1.60514 -0.30571,2.38125 -0.0505,1.39344 -0.0695,1.41245 -1.51803,1.51801 -0.80681,0.0588 -1.57216,-0.0634 -1.70078,-0.27148 z m 1.92176,-2.08347 c -0.009,-0.48236 -0.094,-0.46468 -0.52916,0.11062 -0.67416,0.89131 -0.66702,1.46559 0.0112,0.90271 0.29104,-0.24154 0.52411,-0.69754 0.51794,-1.01333 z m -17.078825,1.75072 c -0.285816,-0.46246 0.157946,-1.44294 0.653068,-1.44294 0.231477,0 0.608722,0.18785 0.838321,0.41745 0.595568,0.59557 0.95838,0.0738 0.95838,-1.37812 0,-1.46224 1.011037,-2.42034 1.59214,-1.50878 0.479663,0.75244 0.427339,1.05833 -0.181029,1.05833 -0.346372,0 -0.529167,0.34671 -0.529167,1.00366 0,0.55201 -0.290312,1.26639 -0.645139,1.5875 -0.692538,0.62674 -2.360814,0.78999 -2.686574,0.2629 z m 4.037269,-0.0494 c 0,-1.02447 2.189568,-4.21582 2.892447,-4.21582 0.165008,0 0.460988,0.42339 0.657733,0.94087 0.266809,0.70176 0.242177,1.01418 -0.09693,1.22932 -0.250054,0.15865 -0.302587,0.29088 -0.11674,0.29386 0.185847,0.003 0.93059,-0.57335 1.654987,-1.2807 1.249059,-1.21967 1.372819,-1.26301 2.396119,-0.83915 1.14458,0.4741 1.55329,1.60929 0.46168,1.28231 -0.44847,-0.13433 -0.87904,0.2452 -1.57392,1.38734 -0.969053,1.59279 -1.68927,2.02762 -1.68927,1.01991 0,-0.3038 0.18185,-0.89911 0.404111,-1.32292 0.380428,-0.7254 0.364924,-0.73889 -0.264584,-0.23021 -1.052523,0.85052 -3.529874,2.10548 -4.156309,2.10548 -0.313131,0 -0.569328,-0.16663 -0.569328,-0.37029 z m 8.349076,0.13511 c -0.34636,-0.34636 -0.28611,-1.44981 0.11744,-2.15085 0.19394,-0.33692 0.51242,-1.06204 0.70772,-1.61139 0.19616,-0.55175 0.55151,-0.92951 0.7939,-0.84398 0.54789,0.19333 0.49325,0.77676 -0.22934,2.44913 -0.49195,1.1386 -0.49692,1.28507 -0.0375,1.10879 0.63442,-0.24345 0.6975,0.26862 0.10597,0.86015 -0.4684,0.46839 -1.09682,0.54948 -1.45815,0.18815 z m 11.24487,-0.38267 c -0.31858,-0.83021 1.19721,-3.20636 2.48169,-3.89031 0.41112,-0.21891 1.10774,-1.34956 1.5875,-2.5766 1.12567,-2.87899 3.59892,-5.69359 4.87313,-5.5457 0.7093,0.0823 0.9463,0.32958 1.0323,1.07699 0.1048,0.9108 0.0279,0.97014 -1.25691,0.97014 -1.82928,0 -2.88981,1.17662 -4.13365,4.58611 -0.53088,1.45521 -1.18492,3.16177 -1.45342,3.79236 -0.42482,0.99773 -0.42024,1.14653 0.0353,1.14653 0.52586,0 0.75399,0.6639 0.25887,0.75337 -1.46196,0.26417 -3.26663,0.0993 -3.4248,-0.31289 z m 2.06414,-1.35128 c 0.33116,-0.86299 0.25936,-0.97702 -0.31503,-0.50031 -0.58645,0.48671 -0.70211,1.05833 -0.21413,1.05833 0.17326,0 0.41139,-0.25111 0.52916,-0.55802 z m 1.97802,1.6023 c 0,-1.36236 2.56396,-4.63851 3.14369,-4.01691 0.51543,0.55265 0.81342,1.9143 0.41893,1.9143 -0.20101,0 -0.27658,0.23164 -0.16794,0.51476 0.12596,0.32826 -0.22954,0.77513 -0.98121,1.2334 -1.27329,0.77629 -2.41347,0.94374 -2.41347,0.35445 z m 11.29234,-0.6033 c 0.005,-1.31214 1.41722,-4.25885 2.79232,-5.825 l 1.12468,-1.28094 -1.16648,0.32545 c -1.18327,0.33014 -2.7937,1.91554 -3.56843,3.51298 -0.47174,0.9727 -1.90767,1.52443 -1.55144,0.59611 0.47485,-1.23745 2.07163,-3.43609 2.8803,-3.96595 0.80164,-0.52526 5.43423,-1.8975 6.45296,-1.91147 0.82138,-0.0113 0.44679,0.5696 -0.69443,1.07682 -2.10636,0.93618 -5.63179,6.37864 -4.72151,7.28892 0.92276,0.92276 5.57239,-3.83693 6.02014,-6.16264 0.18665,-0.96946 1.02458,-1.85637 1.75386,-1.85637 0.46044,0 0.13316,1.21004 -0.85875,3.175 -0.69921,1.38511 -1.05834,2.6247 -1.05834,3.65296 0,1.30825 -0.1241,1.58887 -0.77834,1.75996 -1.05375,0.27556 -1.2003,0.0379 -0.73567,-1.19305 0.21692,-0.57468 0.26642,-1.04487 0.11,-1.04487 -0.15641,0 -0.36785,0.2175 -0.46986,0.48333 -0.24384,0.63545 -3.68277,2.33889 -4.72178,2.33889 -0.65221,0 -0.812,-0.19156 -0.80923,-0.97013 z m 10.39756,-1.04483 c 0.13847,-1.10823 0.44568,-2.1798 0.6827,-2.38125 0.23701,-0.20146 0.7013,-0.80285 1.03174,-1.33642 0.33045,-0.53358 0.7559,-0.97014 0.94546,-0.97014 0.49158,0 0.42663,1.18801 -0.0934,1.70802 -0.34885,0.34885 -0.33964,0.49882 0.0452,0.73667 0.54623,0.33759 0.23422,1.08308 -0.45331,1.08308 -0.24845,0 -0.63255,0.39688 -0.85357,0.88195 -0.32999,0.72427 -0.30858,0.88194 0.11977,0.88194 0.74057,0 0.64619,0.61406 -0.16076,1.04592 -1.3479,0.72137 -1.53035,0.48321 -1.26385,-1.64977 z m 3.7101,1.46261 c 0,-0.3038 0.18185,-0.89911 0.40411,-1.32292 0.40151,-0.7656 0.39923,-0.76622 -0.35494,-0.0966 -1.42635,1.26652 -1.25272,0.18715 0.20428,-1.26985 1.39582,-1.39582 1.49676,-1.43569 2.54034,-1.00343 1.15,0.47635 1.56534,1.61379 0.4694,1.28551 -0.44847,-0.13433 -0.87904,0.2452 -1.57392,1.38734 -0.96905,1.59279 -1.68927,2.02762 -1.68927,1.01991 z m 3.76296,0.31717 c -0.34636,-0.34636 -0.28611,-1.44981 0.11744,-2.15085 0.19395,-0.33692 0.51242,-1.06204 0.70773,-1.61139 0.19616,-0.55175 0.55151,-0.92951 0.7939,-0.84398 0.54562,0.19253 0.49325,0.77703 -0.2167,2.41887 -0.5153,1.1917 -0.51175,1.27834 0.0507,1.23472 0.33266,-0.0258 0.71906,-0.20566 0.85866,-0.39969 0.16429,-0.22834 0.51861,-0.1886 1.0045,0.11264 0.95057,0.58936 1.21113,0.32051 1.21113,-1.24969 0,-1.46224 1.01103,-2.42034 1.59214,-1.50878 0.47966,0.75244 0.42734,1.05833 -0.18103,1.05833 -0.34637,0 -0.52917,0.34671 -0.52917,1.00366 0,0.55201 -0.29031,1.26639 -0.64514,1.5875 -0.73424,0.66448 -2.20205,0.77055 -2.77226,0.20033 -0.27617,-0.27617 -0.44986,-0.27617 -0.62055,0 -0.26455,0.42805 -1.01086,0.50878 -1.37131,0.14833 z m -43.19322,-5.47541 c 0.21804,-0.65412 0.97749,-0.76262 0.97749,-0.13964 0,0.30721 -0.25136,0.55857 -0.55857,0.55857 -0.30721,0 -0.49572,-0.18852 -0.41892,-0.41893 z m 44.44999,0 c 0.21805,-0.65412 0.97749,-0.76262 0.97749,-0.13964 0,0.30721 -0.25135,0.55857 -0.55856,0.55857 -0.30721,0 -0.49573,-0.18852 -0.41893,-0.41893 z"
       id="path826"
       inkscape:connector-curvature="0" />
  </g>
</svg>
