<?xml version="1.0" encoding="UTF-8" standalone="no"?>
<!-- Created with Inkscape (http://www.inkscape.org/) -->

<svg
   xmlns:dc="http://purl.org/dc/elements/1.1/"
   xmlns:cc="http://creativecommons.org/ns#"
   xmlns:rdf="http://www.w3.org/1999/02/22-rdf-syntax-ns#"
   xmlns:svg="http://www.w3.org/2000/svg"
   xmlns="http://www.w3.org/2000/svg"
   xmlns:sodipodi="http://sodipodi.sourceforge.net/DTD/sodipodi-0.dtd"
   xmlns:inkscape="http://www.inkscape.org/namespaces/inkscape"
   width="400"
   height="150"
   viewBox="0 0 105.83333 39.687501"
   version="1.1"
   id="svg8"
   inkscape:version="0.92.4 (5da689c313, 2019-01-14)"
   sodipodi:docname="venafro.svg">
  <defs
     id="defs2" />
  <sodipodi:namedview
     id="base"
     pagecolor="#ffffff"
     bordercolor="#666666"
     borderopacity="1.0"
     inkscape:pageopacity="0.0"
     inkscape:pageshadow="2"
     inkscape:zoom="0.49497475"
     inkscape:cx="380.65251"
     inkscape:cy="562.05279"
     inkscape:document-units="mm"
     inkscape:current-layer="layer1"
     showgrid="false"
     units="px"
     inkscape:window-width="1920"
     inkscape:window-height="1001"
     inkscape:window-x="-9"
     inkscape:window-y="-9"
     inkscape:window-maximized="1" />
  <metadata
     id="metadata5">
    <rdf:RDF>
      <cc:Work
         rdf:about="">
        <dc:format>image/svg+xml</dc:format>
        <dc:type
           rdf:resource="http://purl.org/dc/dcmitype/StillImage" />
        <dc:title></dc:title>
      </cc:Work>
    </rdf:RDF>
  </metadata>
  <g
     inkscape:label="Livello 1"
     inkscape:groupmode="layer"
     id="layer1"
     transform="translate(0,-257.31249)">
    <path
       style="fill:#000000;stroke-width:0.35277775"
       d="m 47.72755,289.40075 c -0.76455,-0.4701 -0.81343,-2.2121 -0.0792,-2.82148 0.44035,-0.36545 0.76104,-0.32665 1.76389,0.21342 0.67413,0.36304 1.22569,0.80363 1.22569,0.97908 0,0.17546 0.6746,0.22853 1.4991,0.11794 2.21975,-0.29773 3.47445,-1.8446 4.5077,-5.55736 0.45575,-1.63764 0.82285,-3.66906 0.81579,-4.51428 -0.009,-1.08958 0.20256,-1.76441 0.72742,-2.31913 0.40715,-0.4303 1.17582,-1.60235 1.70816,-2.60454 1.7232,-3.24413 4.89389,-4.79626 6.91126,-3.38324 1.07271,0.75136 0.94047,2.3852 -0.20623,2.54806 -0.6417,0.0911 -0.79375,-0.0564 -0.79375,-0.76998 0,-1.2118 -1.12179,-1.51266 -2.56729,-0.68853 -0.72376,0.41264 -1.48529,1.35178 -2.09569,2.58448 -1.23692,2.49791 -1.22484,2.81824 0.10626,2.81824 1.55469,0 1.12591,0.85424 -0.49764,0.99144 -0.88603,0.0749 -1.29564,0.2818 -1.29564,0.65454 0,0.77479 -1.75146,6.45225 -2.35501,7.63389 -0.72515,1.41972 -2.60466,3.31501 -3.69751,3.72855 -1.51136,0.57191 -4.99194,0.81033 -5.67734,0.3889 z m -19.31458,-5.85197 c 0,-0.53465 1.67474,-5.31303 3.17,-9.04465 0.3693,-0.92163 0.60313,-1.6757 0.51962,-1.6757 -0.0835,0 -0.57206,0.635 -1.08566,1.41112 -0.51361,0.77611 -1.15389,1.41111 -1.42284,1.41111 -0.81585,0 -0.17444,-1.7493 1.42229,-3.87894 0.79944,-1.06626 1.62768,-2.33626 1.84054,-2.82222 0.40246,-0.91887 2.09186,-2.05007 2.48081,-1.66112 0.27556,0.27557 -0.2147,2.12761 -1.41944,5.36214 -0.50557,1.35735 -0.91921,2.53369 -0.91921,2.61408 0,0.0804 0.9919,-0.84574 2.20423,-2.05807 2.40295,-2.40295 6.23953,-5.12071 7.77156,-5.50522 0.53184,-0.13349 1.05423,-0.38387 1.16086,-0.5564 0.10663,-0.17253 0.82449,-0.3137 1.59524,-0.3137 1.68488,0 2.10091,0.68942 1.05012,1.74021 -0.58411,0.58411 -1.00931,0.69334 -2.05575,0.52811 -1.72968,-0.27311 -3.92067,0.68949 -6.35381,2.7915 -2.9583,2.5557 -6.22144,7.0075 -6.85629,9.35382 -0.19123,0.70674 -0.67764,1.64216 -1.08092,2.07872 -0.85184,0.92215 -2.02135,1.05245 -2.02135,0.22521 z m 21.89858,-1.69275 c -0.95137,-1.14633 1.47639,-5.43581 3.72558,-6.58251 2.25151,-1.14789 2.86563,-0.28328 1.58415,2.23028 -1.06703,2.09291 -1.15379,2.78568 -0.37438,2.9895 0.77724,0.20325 0.89402,0.89442 0.24176,1.43085 -0.62106,0.51076 -4.74168,0.45654 -5.17711,-0.0681 z m 2.35024,-1.35468 c 0.37202,-0.47368 0.88578,-2.73403 0.62142,-2.73403 -0.14192,0 -1.58691,2.79077 -1.58691,3.06488 0,0.2869 0.65719,0.0617 0.96549,-0.33085 z m -16.48771,0.77191 c 0,-1.1111 1.63704,-4.32689 2.8474,-5.59343 1.27374,-1.33284 2.22135,-1.30814 2.3795,0.062 0.0614,0.53191 0.25983,0.96712 0.44097,0.96712 0.50795,0 0.38965,0.9219 -0.17885,1.39371 -0.27951,0.23197 -0.44273,0.60859 -0.36271,0.83694 0.34284,0.97839 -2.48123,3.05742 -4.15617,3.0597 -0.7451,10e-4 -0.97014,-0.16742 -0.97014,-0.72608 z m 3.175,-1.56566 c 0.24498,-0.29518 0.28318,-0.52917 0.0864,-0.52917 -0.19403,0 -0.55041,0.23813 -0.79195,0.52917 -0.24498,0.29518 -0.28318,0.52917 -0.0864,0.52917 0.19403,0 0.5504,-0.23813 0.79195,-0.52917 z m 3.7277,1.97836 c -0.10697,-0.17308 0.34453,-1.4975 1.00333,-2.94316 l 1.19783,-2.62846 -0.84776,0.16206 c -1.00852,0.19279 -1.0975,-0.29039 -0.20263,-1.10023 0.70412,-0.63723 2.52986,-0.80097 2.52986,-0.2269 0,0.21886 0.54589,0.26965 1.41111,0.1313 1.60756,-0.25706 1.73893,0.0299 0.92777,2.02631 -0.26584,0.65429 -0.40711,1.4008 -0.31393,1.65893 0.19658,0.5446 -1.58255,2.52929 -2.26734,2.52929 -0.66524,0 -0.55757,-1.34531 0.25014,-3.12533 0.80529,-1.7747 0.81283,-1.81356 0.3522,-1.81356 -0.40241,0 -1.82619,2.64951 -1.56444,2.91126 0.097,0.097 -0.0979,0.75167 -0.43323,1.45479 -0.5786,1.21334 -1.59291,1.69182 -2.04291,0.9637 z m 19.40936,0.0106 c -0.11663,-0.18871 0.1755,-1.10765 0.64918,-2.04209 0.98546,-1.94402 0.90716,-2.42951 -0.1708,-1.05911 -0.71837,0.91326 -1.74322,1.26785 -1.74322,0.60313 0,-0.18297 0.89022,-1.29422 1.97827,-2.46944 1.87237,-2.02238 3.31339,-2.73591 3.31339,-1.64064 0,0.3229 0.24703,0.43154 0.70744,0.31114 0.81404,-0.21287 1.76201,0.44365 1.76201,1.22029 0,0.39704 -0.25735,0.4786 -1.02545,0.32498 -0.89195,-0.17839 -1.09853,-0.0578 -1.58689,0.92604 -1.4912,3.00426 -3.29408,4.78011 -3.88393,3.8257 z m 6.56682,-0.11929 c -0.69305,-0.69305 -0.48046,-2.11161 0.5974,-3.98639 1.28638,-2.23747 2.23119,-3.08613 3.2717,-2.93876 0.71015,0.10058 0.83748,0.34385 0.92971,1.77615 0.20431,3.1729 -3.16246,6.78536 -4.79881,5.149 z m 2.92749,-3.05787 c 0.11621,-0.45946 0.13688,-0.9098 0.0459,-1.00075 -0.26388,-0.26389 -1.21095,1.38436 -1.46043,2.54168 l -0.22813,1.05833 0.71567,-0.88194 c 0.39362,-0.48507 0.81075,-1.25787 0.92697,-1.71732 z"
       id="path839"
       inkscape:connector-curvature="0" />
  </g>
</svg>
